<?xml version="1.0" encoding="UTF-8"?>
<svg xmlns="http://www.w3.org/2000/svg" viewBox="0 0 98.65 98.65">
    <title>Sprout Email</title>
    <path
        d="M50,.67A49.33,49.33,0,1,0,99.33,50,49.35,49.35,0,0,0,50,.67ZM77,66.85C77,68.5,76.17,70,74.51,70h-48C24.86,70,23,68.5,23,66.85v-27L46.39,58.72a6.44,6.44,0,0,0,4,1.31,5.55,5.55,0,0,0,3.67-1.31L77,39.8Zm0-33L50.65,55.64a.92.92,0,0,1-.91,0L23,33.89v-.58A3.75,3.75,0,0,1,26.51,30h48C76.17,30,77,31.65,77,33.31Z"
        transform="translate(-0.67 -0.67)" style="fill:#47b649"/>
</svg>